<svg width="506.5953125px" height="283.0399963378906px" xmlns="http://www.w3.org/2000/svg" viewBox="-3.2976562499999886 -66.5199981689453 506.5953125 283.0399963378906" style="background: none;" preserveAspectRatio="xMidYMid"><defs><filter id="editing-vintage" x="-100%" y="-100%" width="300%" height="300%"><feConvolveMatrix in="SourceGraphic" result="extrude" order="9,9" divisor="1" kernelMatrix="1,0,0,0,0,0,0,0,0,0,1,0,0,0,0,0,0,0,0,0,1,0,0,0,0,0,0,0,0,0,1,0,0,0,0,0,0,0,0,0,1,0,0,0,0,0,0,0,0,0,1,0,0,0,0,0,0,0,0,0,1,0,0,0,0,0,0,0,0,0,1,0,0,0,0,0,0,0,0,0,1"> </feConvolveMatrix><feFlood flood-color="#142e68" result="flood-extrude"></feFlood><feComposite operator="in" in="flood-extrude" in2="extrude" result="extrude-color"></feComposite><feOffset dx="5" dy="5" in="extrude-color" result="extrude-offset"></feOffset><feColorMatrix in="SourceGraphic" result="stroke" type="matrix" values="0 0 0 0 0 0 0 0 0 0 0 0 0 0 0 0 1 0 0 0 "></feColorMatrix><feColorMatrix in="SourceGraphic" result="fill" type="matrix" values="0 0 0 0 0 0 0 0 0 0 0 0 0 0 0 1 0 0 1 0 "></feColorMatrix><feConvolveMatrix in="stroke" result="inner-shadow" order="5,5" divisor="1" kernelMatrix="1 0 0 0 0 0 1 0 0 0 0 0 1 0 0 0 0 0 1 0 0 0 0 0 1 "></feConvolveMatrix><feOffset dx="1" dy="1" in="inner-shadow" result="offset"></feOffset><feComposite operator="in" in="offset" in2="SourceAlpha" result="comp"></feComposite><feFlood flood-color="#b6cabd" result="flood3"></feFlood><feComposite operator="in" in="flood3" in2="comp" result="comp2"></feComposite><feColorMatrix in="comp2" result="comp3" type="matrix" values="1 0 0 0 0 0 1 0 0 0 0 0 1 0 0 0 0 0 0.5 0 "></feColorMatrix><feFlood flood-color="#1ea112" result="flood1"></feFlood><feComposite operator="in" in="flood1" in2="fill" result="fill2"></feComposite><feFlood flood-color="#fff" result="flood2"></feFlood><feComposite operator="in" in="flood2" in2="stroke" result="stroke2"></feComposite><feMerge result="obj"><feMergeNode in="extrude-offset"></feMergeNode><feMergeNode in="fill2"></feMergeNode><feMergeNode in="comp3"></feMergeNode></feMerge><feConvolveMatrix in="SourceAlpha" result="shadow" order="9,9" divisor="1" kernelMatrix="1,0,0,0,0,0,0,0,0,0,1,0,0,0,0,0,0,0,0,0,1,0,0,0,0,0,0,0,0,0,1,0,0,0,0,0,0,0,0,0,1,0,0,0,0,0,0,0,0,0,1,0,0,0,0,0,0,0,0,0,1,0,0,0,0,0,0,0,0,0,1,0,0,0,0,0,0,0,0,0,1"></feConvolveMatrix><feOffset dx="15" dy="15" in="shadow" result="shadow-offset"></feOffset><feFlood flood-color="#7c9ba0" result="flood-shadow"></feFlood><feComposite operator="in" in="flood-shadow" in2="shadow-offset" result="shadow-color"></feComposite><feMerge><feMergeNode in="shadow-color"></feMergeNode><feMergeNode in="obj"></feMergeNode></feMerge></filter></defs><g transform="translate(-9,-9)"><g filter="url(#editing-vintage)"><g transform="translate(75.23211085796356, 133.10000228881836)"><path d="M36.85 0L1.33 0L21.58-109.06L21.58-109.06Q38.01-110.89 62.00-110.89L62.00-110.89L62.00-110.89Q85.99-110.89 97.11-103.92L97.11-103.92L97.11-103.92Q108.23-96.94 108.23-82.92L108.23-82.92L108.23-82.92Q108.23-68.89 101.01-60.09L101.01-60.09L101.01-60.09Q93.79-51.29 81.34-48.47L81.34-48.47L81.34-48.47Q84.16-34.69 90.64-23.57L90.64-23.57L90.64-23.57Q96.61-13.11 103.58-9.79L103.58-9.79L103.58-9.79Q101.09-2.82 96.03 0.25L96.03 0.25L96.03 0.25Q90.97 3.32 83.75 3.32L83.75 3.32L83.75 3.32Q76.53 3.32 70.88-0.91L70.88-0.91L70.88-0.91Q65.24-5.15 60.76-12.95L60.76-12.95L60.76-12.95Q51.29-29.88 50.30-56.61L50.30-56.61L51.46-56.61L51.46-56.61Q63.74-56.94 69.89-63.33L69.89-63.33L69.89-63.33Q76.03-69.72 76.03-83.17L76.03-83.17L76.03-83.17Q76.03-99.93 61.92-100.60L61.92-100.60L58.27-100.60L58.27-100.60Q56.77-100.60 55.94-100.43L55.94-100.43L36.85 0ZM184.09-2.82L184.09-2.82L184.09-2.82Q169.32 3.32 151.23 3.32L151.23 3.32L151.23 3.32Q135.29 3.32 124.50-4.98L124.50-4.98L124.50-4.98Q112.71-13.78 112.71-29.38L112.71-29.38L112.71-29.38Q112.71-52.46 140.44-58.93L140.44-58.93L140.44-58.93Q135.79-72.04 135.79-81.17L135.79-81.17L135.79-81.17Q135.79-90.30 139.27-96.20L139.27-96.20L139.27-96.20Q142.76-102.09 148.74-105.91L148.74-105.91L148.74-105.91Q160.02-112.88 178.95-112.88L178.95-112.88L178.95-112.88Q192.06-112.88 200.36-107.90L200.36-107.90L200.36-107.90Q208.83-102.75 208.83-95.12L208.83-95.12L208.83-95.12Q208.83-86.49 202.85-81.67L202.85-81.67L202.85-81.67Q197.54-77.19 188.74-77.19L188.74-77.19L188.74-77.19Q183.60-77.19 181.94-77.69L181.94-77.69L181.94-77.69Q182.60-81.34 182.60-87.32L182.60-87.32L182.60-87.32Q182.60-93.29 180.61-97.36L180.61-97.36L180.61-97.36Q178.62-101.43 175.30-101.43L175.30-101.43L175.30-101.43Q169.15-101.43 166.83-96.03L166.83-96.03L166.83-96.03Q164.51-90.64 164.51-82.75L164.51-82.75L164.51-82.75Q164.51-74.87 166.08-67.65L166.08-67.65L166.08-67.65Q167.66-60.42 170.65-53.45L170.65-53.45L170.65-53.45Q176.96-39.01 187.08-29.22L187.08-29.22L187.08-29.22Q189.74-35.69 190.07-45.82L190.07-45.82L190.07-45.82Q190.07-54.78 183.93-60.09L183.93-60.09L183.93-60.09Q186.25-62.25 190.73-63.58L190.73-63.58L190.73-63.58Q195.22-64.91 199.20-64.91L199.20-64.91L199.20-64.91Q208.00-64.91 212.15-59.59L212.15-59.59L212.15-59.59Q216.30-54.28 216.30-45.82L216.30-45.82L216.30-45.82Q216.30-30.71 205.51-18.26L205.51-18.26L205.51-18.26Q209.66-17.10 213.48-17.10L213.48-17.10L213.48-17.10Q221.78-17.10 224.43-19.26L224.43-19.26L224.43-19.26Q225.76-16.10 225.76-11.95L225.76-11.95L225.76-11.95Q225.76-3.65 220.37-0.17L220.37-0.17L220.37-0.17Q214.97 3.32 205.34 3.32L205.34 3.32L205.34 3.32Q195.71 3.32 184.09-2.82ZM146.08-46.31L146.08-46.31L146.08-46.31Q142.43-42.66 142.43-36.19L142.43-36.19L142.43-36.19Q142.43-29.71 143.92-25.65L143.92-25.65L143.92-25.65Q145.42-21.58 147.74-18.59L147.74-18.59L147.74-18.59Q153.05-12.12 160.02-12.12L160.02-12.12L160.02-12.12Q166.33-12.12 169.98-13.45L169.98-13.45L169.98-13.45Q156.04-26.56 146.08-46.31ZM270.25 0L234.89 0L253.81-100.93L255.64-109.56L291.16-109.56L270.25 0ZM337.64-9.79L337.64-9.79L337.64-9.79Q333.16 3.32 315.90 3.32L315.90 3.32L315.90 3.32Q303.12 3.32 294.32-11.95L294.32-11.95L294.32-11.95Q285.35-27.22 283.69-52.12L283.69-52.12L283.69-52.12Q301.95-85.49 314.57-99.27L314.57-99.27L314.57-99.27Q326.69-112.38 339.30-112.38L339.30-112.38L339.30-112.38Q346.11-112.38 351.01-108.73L351.01-108.73L351.01-108.73Q355.90-105.08 357.07-99.27L357.07-99.27L357.07-99.27Q351.42-96.94 348.77-95.12L348.77-95.12L348.77-95.12Q342.13-90.14 333.16-79.02L333.16-79.02L318.06-60.92L318.06-60.92Q314.40-56.61 312.91-54.61L312.91-54.61L312.91-54.61Q315.40-40.67 322.87-26.89L322.87-26.89L322.87-26.89Q330.01-13.78 337.64-9.79Z" fill="#f00" stroke="#0f0" stroke-width="1.8"></path></g></g><g><g transform="translate(75.11291682720184, 133.0999927520752)"><path d="M36.85 0L1.33 0L21.58-109.06L21.58-109.06Q38.01-110.89 62.00-110.89L62.00-110.89L62.00-110.89Q85.99-110.89 97.11-103.92L97.11-103.92L97.11-103.92Q108.23-96.94 108.23-82.92L108.23-82.92L108.23-82.92Q108.23-68.89 101.01-60.09L101.01-60.09L101.01-60.09Q93.79-51.29 81.34-48.47L81.34-48.47L81.34-48.47Q84.16-34.69 90.64-23.57L90.64-23.57L90.64-23.57Q96.61-13.11 103.58-9.79L103.58-9.79L103.58-9.79Q101.09-2.82 96.03 0.25L96.03 0.25L96.03 0.25Q90.97 3.32 83.75 3.32L83.75 3.32L83.75 3.32Q76.53 3.32 70.88-0.91L70.88-0.91L70.88-0.91Q65.24-5.15 60.76-12.95L60.76-12.95L60.76-12.95Q51.29-29.88 50.30-56.61L50.30-56.61L51.46-56.61L51.46-56.61Q63.74-56.94 69.89-63.33L69.89-63.33L69.89-63.33Q76.03-69.72 76.03-83.17L76.03-83.17L76.03-83.17Q76.03-99.93 61.92-100.60L61.92-100.60L58.27-100.60L58.27-100.60Q56.77-100.60 55.94-100.43L55.94-100.43L36.85 0ZM184.09-2.82L184.09-2.82L184.09-2.82Q169.32 3.32 151.23 3.32L151.23 3.32L151.23 3.32Q135.29 3.32 124.50-4.98L124.50-4.98L124.50-4.98Q112.71-13.78 112.71-29.38L112.71-29.38L112.71-29.38Q112.71-52.46 140.44-58.93L140.44-58.93L140.44-58.93Q135.79-72.04 135.79-81.17L135.79-81.17L135.79-81.17Q135.79-90.30 139.27-96.20L139.27-96.20L139.27-96.20Q142.76-102.09 148.74-105.91L148.74-105.91L148.74-105.91Q160.02-112.88 178.95-112.88L178.95-112.88L178.95-112.88Q192.06-112.88 200.36-107.90L200.36-107.90L200.36-107.90Q208.83-102.75 208.83-95.12L208.83-95.12L208.83-95.12Q208.83-86.49 202.85-81.67L202.85-81.67L202.85-81.67Q197.54-77.19 188.74-77.19L188.74-77.19L188.74-77.19Q183.60-77.19 181.94-77.69L181.94-77.69L181.94-77.69Q182.60-81.34 182.60-87.32L182.60-87.32L182.60-87.32Q182.60-93.29 180.61-97.36L180.61-97.36L180.61-97.36Q178.62-101.43 175.30-101.43L175.30-101.43L175.30-101.43Q169.15-101.43 166.83-96.03L166.83-96.03L166.83-96.03Q164.51-90.64 164.51-82.75L164.51-82.75L164.51-82.75Q164.51-74.87 166.08-67.65L166.08-67.65L166.08-67.65Q167.66-60.42 170.65-53.45L170.65-53.45L170.65-53.45Q176.96-39.01 187.08-29.22L187.08-29.22L187.08-29.22Q189.74-35.69 190.07-45.82L190.07-45.82L190.07-45.82Q190.07-54.78 183.93-60.09L183.93-60.09L183.93-60.09Q186.25-62.25 190.73-63.58L190.73-63.58L190.73-63.58Q195.22-64.91 199.20-64.91L199.20-64.91L199.20-64.91Q208.00-64.91 212.15-59.59L212.15-59.59L212.15-59.59Q216.30-54.28 216.30-45.82L216.30-45.82L216.30-45.82Q216.30-30.71 205.51-18.26L205.51-18.26L205.51-18.26Q209.66-17.10 213.48-17.10L213.48-17.10L213.48-17.10Q221.78-17.10 224.43-19.26L224.43-19.26L224.43-19.26Q225.76-16.10 225.76-11.95L225.76-11.95L225.76-11.95Q225.76-3.65 220.37-0.17L220.37-0.17L220.37-0.17Q214.97 3.32 205.34 3.32L205.34 3.32L205.34 3.32Q195.71 3.32 184.09-2.82ZM146.08-46.31L146.08-46.31L146.08-46.31Q142.43-42.66 142.43-36.19L142.43-36.19L142.43-36.19Q142.43-29.71 143.92-25.65L143.92-25.65L143.92-25.65Q145.42-21.58 147.74-18.59L147.74-18.59L147.74-18.59Q153.05-12.12 160.02-12.12L160.02-12.12L160.02-12.12Q166.33-12.12 169.98-13.45L169.98-13.45L169.98-13.45Q156.04-26.56 146.08-46.31ZM270.25 0L234.89 0L253.81-100.93L255.64-109.56L291.16-109.56L270.25 0ZM337.64-9.79L337.64-9.79L337.64-9.79Q333.16 3.32 315.90 3.32L315.90 3.32L315.90 3.32Q303.12 3.32 294.32-11.95L294.32-11.95L294.32-11.95Q285.35-27.22 283.69-52.12L283.69-52.12L283.69-52.12Q301.95-85.49 314.57-99.27L314.57-99.27L314.57-99.27Q326.69-112.38 339.30-112.38L339.30-112.38L339.30-112.38Q346.11-112.38 351.01-108.73L351.01-108.73L351.01-108.73Q355.90-105.08 357.07-99.27L357.07-99.27L357.07-99.27Q351.42-96.94 348.77-95.12L348.77-95.12L348.77-95.12Q342.13-90.14 333.16-79.02L333.16-79.02L318.06-60.92L318.06-60.92Q314.40-56.61 312.91-54.61L312.91-54.61L312.91-54.61Q315.40-40.67 322.87-26.89L322.87-26.89L322.87-26.89Q330.01-13.78 337.64-9.79Z" fill="none" stroke="#1ea112" stroke-width="2.1"></path></g></g></g><style>text {
  font-size: 64px;
  font-family: Arial Black;
  dominant-baseline: central;
  text-anchor: middle;
}</style></svg>