<?xml version="1.0" standalone="no"?>
<!DOCTYPE svg PUBLIC "-//W3C//DTD SVG 20010904//EN"
 "http://www.w3.org/TR/2001/REC-SVG-20010904/DTD/svg10.dtd">
<svg version="1.0" xmlns="http://www.w3.org/2000/svg"
 width="225.000000pt" height="225.000000pt" viewBox="0 0 225.000000 225.000000"
 preserveAspectRatio="xMidYMid meet">

<g transform="translate(0.000000,225.000000) scale(0.100000,-0.100000)"
fill="#000000" stroke="none">
<path d="M1370 2171 c-70 -15 -169 -78 -156 -100 4 -5 23 -13 44 -17 20 -4 43
-12 51 -18 9 -7 68 -10 170 -9 143 1 156 0 169 -18 7 -10 19 -19 25 -19 14 0
67 -64 67 -80 0 -17 53 -80 68 -80 6 0 12 -9 12 -19 0 -11 7 -27 16 -35 9 -10
18 -43 23 -84 l7 -67 13 76 c17 94 11 191 -14 242 -29 62 -111 132 -210 183
-81 41 -99 46 -170 49 -44 2 -96 1 -115 -4z"/>
<path d="M90 2151 c0 -25 6 -27 13 -6 4 8 2 17 -3 20 -6 4 -10 -3 -10 -14z"/>
<path d="M1061 1879 c-6 -18 -11 -44 -11 -59 0 -15 -6 -40 -14 -56 -28 -59
-28 -81 0 -103 15 -12 23 -21 18 -22 -5 0 8 -8 28 -18 45 -21 98 -17 98 8 1
14 2 14 15 -2 12 -17 14 -15 20 27 6 35 3 52 -10 72 -18 29 -118 79 -135 69
-11 -7 -8 46 6 93 10 34 -3 26 -15 -9z m74 -159 c4 -6 -5 -10 -19 -10 -14 0
-26 5 -26 10 0 6 9 10 19 10 11 0 23 -4 26 -10z m29 -80 c-14 -14 -39 14 -29
31 5 8 12 6 23 -5 11 -11 13 -19 6 -26z m-40 -9 c3 -4 -6 -6 -19 -3 -14 2 -25
6 -25 8 0 8 39 4 44 -5z"/>
<path d="M1331 1721 c-8 -5 -11 -16 -8 -24 3 -8 -1 -23 -8 -34 -20 -25 -18
-36 4 -30 19 5 43 -17 49 -44 5 -23 34 -39 71 -39 l36 1 -38 14 c-50 17 -57
25 -24 25 19 0 27 5 27 17 0 15 1 15 13 1 13 -17 97 -32 97 -17 0 5 8 9 17 9
28 0 5 14 -30 18 -18 2 -41 4 -52 6 -11 1 -31 6 -44 10 -18 6 -21 10 -10 17
11 7 10 9 -5 9 -15 0 -17 3 -9 11 13 13 96 2 88 -12 -4 -5 0 -6 8 -3 8 3 18 1
21 -5 9 -13 36 -2 36 15 0 17 -39 44 -55 38 -7 -3 -27 2 -44 10 -32 17 -117
21 -140 7z"/>
<path d="M1455 1640 c3 -5 11 -10 16 -10 6 0 7 5 4 10 -3 6 -11 10 -16 10 -6
0 -7 -4 -4 -10z"/>
<path d="M1846 1595 c-9 -26 -7 -32 5 -12 6 10 9 21 6 23 -2 3 -7 -2 -11 -11z"/>
<path d="M1863 1533 c-10 -3 -10 -9 0 -24 15 -24 27 -24 27 0 0 22 -9 30 -27
24z"/>
<path d="M946 1475 c-14 -79 -15 -93 -7 -120 l7 -29 11 30 c6 16 14 37 17 48
5 14 12 17 31 12 20 -5 33 1 62 29 20 19 41 35 46 35 6 0 8 2 5 5 -3 3 -23 -3
-44 -14 -34 -17 -44 -18 -76 -8 -24 7 -38 19 -41 32 -2 12 -6 5 -11 -20z m10
-102 c-10 -10 -19 5 -10 18 6 11 8 11 12 0 2 -7 1 -15 -2 -18z"/>
<path d="M1820 1500 c-9 -6 -10 -10 -3 -10 6 0 15 5 18 10 8 12 4 12 -15 0z"/>
<path d="M1118 1445 c-14 -33 -14 -35 5 -48 11 -7 18 -19 16 -25 -3 -9 -11 -6
-27 8 -17 16 -26 18 -41 11 -10 -6 -21 -8 -24 -5 -10 10 -1 -24 10 -37 6 -8
14 -24 17 -36 4 -13 15 -23 26 -23 22 0 39 22 22 28 -24 8 -11 20 16 15 15 -3
38 -7 52 -7 14 -1 32 -5 40 -8 8 -4 24 -8 35 -10 12 -2 20 -11 20 -23 0 -16 7
-20 30 -20 17 0 35 -3 41 -7 14 -9 24 0 24 23 0 12 -13 20 -42 28 -116 27
-199 63 -178 76 6 4 20 -1 31 -11 10 -9 19 -13 19 -8 0 10 47 34 65 34 11 0
45 31 45 41 0 2 -35 5 -77 6 -57 2 -79 6 -85 18 -13 23 -22 18 -40 -20z"/>
<path d="M1793 1455 c0 -8 6 -16 13 -19 19 -7 29 14 13 25 -20 12 -26 11 -26
-6z"/>
<path d="M1350 1441 c0 -16 31 -64 48 -74 7 -5 18 -21 24 -35 9 -22 12 -24 15
-9 3 11 -6 26 -21 38 -14 11 -26 26 -26 33 0 7 -9 23 -20 36 -11 13 -20 18
-20 11z"/>
<path d="M945 1270 c4 -14 18 -47 31 -73 l25 -49 -26 -34 c-25 -32 -26 -39
-19 -101 6 -62 34 -146 52 -157 5 -3 6 8 4 25 -2 16 -8 32 -13 35 -5 3 -9 23
-9 44 0 38 1 39 25 28 13 -6 34 -28 45 -49 35 -68 107 -122 133 -101 7 6 46
17 88 26 95 20 109 25 109 42 0 16 61 64 82 64 9 0 20 16 27 40 6 22 15 40 19
40 10 0 46 60 49 83 2 9 -1 17 -6 17 -22 0 -70 -23 -75 -36 -3 -8 -12 -14 -21
-14 -8 0 -37 -14 -65 -31 -48 -30 -52 -30 -70 -14 -16 15 -27 15 -88 6 -74
-12 -111 -4 -179 35 -28 17 -58 67 -91 154 -3 8 -12 22 -20 30 -13 12 -14 11
-7 -10z"/>
<path d="M1250 1280 c-13 -8 -12 -10 3 -10 9 0 17 5 17 10 0 12 -1 12 -20 0z"/>
<path d="M1690 1254 c0 -17 22 -14 28 4 2 7 -3 12 -12 12 -9 0 -16 -7 -16 -16z"/>
<path d="M2243 1210 c0 -25 2 -35 4 -22 2 12 2 32 0 45 -2 12 -4 2 -4 -23z"/>
<path d="M1600 1159 c0 -5 5 -7 10 -4 6 3 10 8 10 11 0 2 -4 4 -10 4 -5 0 -10
-5 -10 -11z"/>
<path d="M1661 1034 c-6 -22 -11 -46 -11 -55 0 -9 -13 -43 -30 -75 -34 -67
-33 -64 -22 -64 4 0 22 24 40 54 38 64 61 151 45 167 -8 8 -14 1 -22 -27z"/>
<path d="M980 708 c-17 -29 -30 -36 -102 -54 l-83 -22 55 -1 c35 0 71 7 98 19
46 21 51 20 126 -16 28 -13 56 -24 64 -24 20 0 9 22 -20 40 -14 8 -40 32 -58
53 -18 20 -38 37 -46 37 -8 0 -23 -15 -34 -32z"/>
<path d="M1444 632 c-11 -10 -19 -22 -17 -28 2 -6 -6 -21 -17 -34 -11 -13 -20
-28 -20 -35 0 -6 -13 -23 -28 -38 -23 -22 -35 -26 -58 -21 -47 9 -114 -12
-114 -37 0 -26 26 -35 48 -17 24 21 50 29 57 18 4 -6 11 -10 16 -10 11 0 60
47 100 95 30 37 48 41 96 17 62 -30 180 -65 197 -59 20 8 21 27 2 27 -8 0 -44
9 -82 21 -55 17 -76 30 -113 70 -45 47 -47 48 -67 31z"/>
<path d="M165 180 c3 -5 10 -10 16 -10 5 0 9 5 9 10 0 6 -7 10 -16 10 -8 0
-12 -4 -9 -10z"/>
<path d="M160 110 c0 -5 5 -10 10 -10 6 0 10 5 10 10 0 6 -4 10 -10 10 -5 0
-10 -4 -10 -10z"/>
<path d="M2100 70 c6 -11 22 -23 35 -26 14 -3 25 -9 25 -13 0 -3 5 -13 10 -21
8 -13 11 -12 24 5 22 29 19 38 -8 31 -18 -4 -33 1 -54 19 -36 30 -46 32 -32 5z"/>
<path d="M120 20 c0 -5 5 -10 10 -10 6 0 10 5 10 10 0 6 -4 10 -10 10 -5 0
-10 -4 -10 -10z"/>
<path d="M2230 10 c0 -5 5 -10 11 -10 5 0 7 5 4 10 -3 6 -8 10 -11 10 -2 0 -4
-4 -4 -10z"/>
</g>
</svg>
